<?xml version="1.0" standalone="no"?><!DOCTYPE svg PUBLIC "-//W3C//DTD SVG 1.1//EN" "http://www.w3.org/Graphics/SVG/1.1/DTD/svg11.dtd"><svg t="1559030405192" class="icon" style="" viewBox="0 0 1024 1024" version="1.1" xmlns="http://www.w3.org/2000/svg" p-id="2929" xmlns:xlink="http://www.w3.org/1999/xlink" width="128" height="128"><defs><style type="text/css"></style></defs><path d="M718.188013 520.572236H305.821197v-51.54598c0-18.978237 15.385409-34.363645 34.363646-34.363645h343.639524c18.978237 0 34.363645 15.385409 34.363646 34.363645v51.54598z" fill="#1296db" p-id="2930"></path><path d="M512 958.708971c-13.909801 0-27.836999-4.202719-39.71656-12.618388L296.452829 821.496913C191.213973 738.90894 133.995807 622.150726 133.995807 491.733421V255.221776a34.370809 34.370809 0 0 1 19.648502-31.05018L473.626018 72.453149a31.991622 31.991622 0 0 1 3.691065-1.493004c22.299889-7.550976 46.914496-7.567349 69.248154 0 1.258667 0.419556 2.499937 0.923022 3.691065 1.493004l320.098366 151.718447a34.362622 34.362622 0 0 1 19.648502 31.05018v236.512668c0 130.433678-57.217143 247.183705-161.098072 328.756559L551.732933 946.082396c-11.879562 8.41567-25.806759 12.626575-39.732933 12.626575zM202.724121 276.958846v214.774575c0 108.872616 47.88766 206.427466 134.821615 274.701432l174.454264 123.571387 175.813215-124.586507c85.591377-67.251683 133.462664-164.80551 133.462664-273.686312V276.958846L522.906397 135.543046c-7.131421-2.064009-14.832823-2.064009-21.930475 0L202.724121 276.958846z" fill="#1296db" p-id="2931"></path><path d="M512 676.532287c-18.977213 0-34.363645-15.386432-34.363645-34.363645V313.068252c0-18.977213 15.386432-34.363645 34.363645-34.363646s34.363645 15.386432 34.363645 34.363646V642.168642c0 18.977213-15.386432 34.363645-34.363645 34.363645z" fill="#1296db" p-id="2932"></path></svg>